<?xml version="1.0" encoding="UTF-8" standalone="no"?>
<!DOCTYPE svg PUBLIC "-//W3C//DTD SVG 1.1//EN"
 "http://www.w3.org/Graphics/SVG/1.1/DTD/svg11.dtd">
<!-- Generated by graphviz version 8.1.0 (0)
 -->
<!-- Pages: 1 -->
<svg width="1468pt" height="890pt"
 viewBox="0.00 0.00 1468.38 890.00" xmlns="http://www.w3.org/2000/svg" xmlns:xlink="http://www.w3.org/1999/xlink">
<g id="graph0" class="graph" transform="scale(1 1) rotate(0) translate(4 886)">
<polygon fill="white" stroke="none" points="-4,4 -4,-886 1464.38,-886 1464.38,4 -4,4"/>
<!-- (below main) -->
<g id="node1" class="node">
<title>(below main)</title>
<polygon fill="#ff0000" stroke="#ff0000" points="1016.5,-772 945,-772 945,-704 1016.5,-704 1016.5,-772"/>
<text text-anchor="middle" x="980.75" y="-758.5" font-family="Arial" font-size="10.00" fill="#ffffff">raytracer</text>
<text text-anchor="middle" x="980.75" y="-746.5" font-family="Arial" font-size="10.00" fill="#ffffff">(below main)</text>
<text text-anchor="middle" x="980.75" y="-734.5" font-family="Arial" font-size="10.00" fill="#ffffff">99.99%</text>
<text text-anchor="middle" x="980.75" y="-722.5" font-family="Arial" font-size="10.00" fill="#ffffff">(0.00%)</text>
<text text-anchor="middle" x="980.75" y="-710.5" font-family="Arial" font-size="10.00" fill="#ffffff">2×</text>
</g>
<!-- main -->
<g id="node2" class="node">
<title>main</title>
<polygon fill="#ff0000" stroke="#ff0000" points="1007.88,-662 953.62,-662 953.62,-594 1007.88,-594 1007.88,-662"/>
<text text-anchor="middle" x="980.75" y="-648.5" font-family="Arial" font-size="10.00" fill="#ffffff">raytracer</text>
<text text-anchor="middle" x="980.75" y="-636.5" font-family="Arial" font-size="10.00" fill="#ffffff">main</text>
<text text-anchor="middle" x="980.75" y="-624.5" font-family="Arial" font-size="10.00" fill="#ffffff">99.99%</text>
<text text-anchor="middle" x="980.75" y="-612.5" font-family="Arial" font-size="10.00" fill="#ffffff">(1.09%)</text>
<text text-anchor="middle" x="980.75" y="-600.5" font-family="Arial" font-size="10.00" fill="#ffffff">1×</text>
</g>
<!-- (below main)&#45;&gt;main -->
<g id="edge1" class="edge">
<title>(below main)&#45;&gt;main</title>
<path fill="none" stroke="#ff0000" stroke-width="4" d="M980.75,-703.72C980.75,-695.61 980.75,-686.76 980.75,-678.09"/>
<polygon fill="#ff0000" stroke="#ff0000" stroke-width="4" points="984.25,-678.36 980.75,-668.36 977.25,-678.36 984.25,-678.36"/>
<text text-anchor="middle" x="997.25" y="-685.5" font-family="Arial" font-size="10.00" fill="#ff0000">99.99%</text>
<text text-anchor="middle" x="997.25" y="-673.5" font-family="Arial" font-size="10.00" fill="#ff0000">1×</text>
</g>
<!-- MovableCamera::get_ray(int, int, bool) const -->
<g id="node9" class="node">
<title>MovableCamera::get_ray(int, int, bool) const</title>
<polygon fill="#0c8a91" stroke="#0c8a91" points="1286.5,-475 1077,-475 1077,-407 1286.5,-407 1286.5,-475"/>
<text text-anchor="middle" x="1181.75" y="-461.5" font-family="Arial" font-size="10.00" fill="#ffffff">raytracer</text>
<text text-anchor="middle" x="1181.75" y="-449.5" font-family="Arial" font-size="10.00" fill="#ffffff">MovableCamera::get_ray(int, int, bool) const</text>
<text text-anchor="middle" x="1181.75" y="-437.5" font-family="Arial" font-size="10.00" fill="#ffffff">23.55%</text>
<text text-anchor="middle" x="1181.75" y="-425.5" font-family="Arial" font-size="10.00" fill="#ffffff">(6.09%)</text>
<text text-anchor="middle" x="1181.75" y="-413.5" font-family="Arial" font-size="10.00" fill="#ffffff">9000000×</text>
</g>
<!-- main&#45;&gt;MovableCamera::get_ray(int, int, bool) const -->
<g id="edge16" class="edge">
<title>main&#45;&gt;MovableCamera::get_ray(int, int, bool) const</title>
<path fill="none" stroke="#0c8a91" stroke-width="0.94" d="M1008.28,-601.66C1042.61,-570.06 1101.61,-515.76 1141.14,-479.38"/>
<polygon fill="#0c8a91" stroke="#0c8a91" stroke-width="0.94" points="1141.94,-480.05 1144.38,-475.47 1139.62,-477.53 1141.94,-480.05"/>
<text text-anchor="middle" x="1072.12" y="-575.5" font-family="Arial" font-size="10.00" fill="#0c8a91">23.55%</text>
<text text-anchor="middle" x="1072.12" y="-563.5" font-family="Arial" font-size="10.00" fill="#0c8a91">9000000×</text>
</g>
<!-- Scene::color_at(Ray const&amp;, int) -->
<g id="node12" class="node">
<title>Scene::color_at(Ray const&amp;, int)</title>
<polygon fill="#d8d906" stroke="#d8d906" points="962,-552 803.5,-552 803.5,-484 962,-484 962,-552"/>
<text text-anchor="middle" x="882.75" y="-538.5" font-family="Arial" font-size="10.00" fill="#ffffff">raytracer</text>
<text text-anchor="middle" x="882.75" y="-526.5" font-family="Arial" font-size="10.00" fill="#ffffff">Scene::color_at(Ray const&amp;, int)</text>
<text text-anchor="middle" x="882.75" y="-514.5" font-family="Arial" font-size="10.00" fill="#ffffff">74.89%</text>
<text text-anchor="middle" x="882.75" y="-502.5" font-family="Arial" font-size="10.00" fill="#ffffff">(3.22%)</text>
<text text-anchor="middle" x="882.75" y="-490.5" font-family="Arial" font-size="10.00" fill="#ffffff">9000000×</text>
</g>
<!-- main&#45;&gt;Scene::color_at(Ray const&amp;, int) -->
<g id="edge17" class="edge">
<title>main&#45;&gt;Scene::color_at(Ray const&amp;, int)</title>
<path fill="none" stroke="#d8d906" stroke-width="3" d="M953.19,-596.63C943.27,-585.7 931.9,-573.16 921.22,-561.4"/>
<polygon fill="#d8d906" stroke="#d8d906" stroke-width="3" points="923.95,-559.57 915.85,-555.17 919.44,-563.66 923.95,-559.57"/>
<text text-anchor="middle" x="962.12" y="-575.5" font-family="Arial" font-size="10.00" fill="#d8d906">74.89%</text>
<text text-anchor="middle" x="962.12" y="-563.5" font-family="Arial" font-size="10.00" fill="#d8d906">9000000×</text>
</g>
<!-- 0x000000000001b530 -->
<g id="node3" class="node">
<title>0x000000000001b530</title>
<polygon fill="#ff0000" stroke="#ff0000" points="1036,-882 925.5,-882 925.5,-814 1036,-814 1036,-882"/>
<text text-anchor="middle" x="980.75" y="-868.5" font-family="Arial" font-size="10.00" fill="#ffffff">ld&#45;linux&#45;x86&#45;64.so.2</text>
<text text-anchor="middle" x="980.75" y="-856.5" font-family="Arial" font-size="10.00" fill="#ffffff">0x000000000001b530</text>
<text text-anchor="middle" x="980.75" y="-844.5" font-family="Arial" font-size="10.00" fill="#ffffff">100.00%</text>
<text text-anchor="middle" x="980.75" y="-832.5" font-family="Arial" font-size="10.00" fill="#ffffff">(0.00%)</text>
<text text-anchor="middle" x="980.75" y="-820.5" font-family="Arial" font-size="10.00" fill="#ffffff">0×</text>
</g>
<!-- 0x000000000001b530&#45;&gt;(below main) -->
<g id="edge2" class="edge">
<title>0x000000000001b530&#45;&gt;(below main)</title>
<path fill="none" stroke="#ff0000" stroke-width="4" d="M980.75,-813.72C980.75,-805.61 980.75,-796.76 980.75,-788.09"/>
<polygon fill="#ff0000" stroke="#ff0000" stroke-width="4" points="984.25,-788.36 980.75,-778.36 977.25,-788.36 984.25,-788.36"/>
<text text-anchor="middle" x="997.25" y="-795.5" font-family="Arial" font-size="10.00" fill="#ff0000">99.99%</text>
<text text-anchor="middle" x="997.25" y="-783.5" font-family="Arial" font-size="10.00" fill="#ff0000">1×</text>
</g>
<!-- Glass::interact(RayParams const&amp;, Intersection const&amp;) const -->
<g id="node4" class="node">
<title>Glass::interact(RayParams const&amp;, Intersection const&amp;) const</title>
<polygon fill="#0d1876" stroke="#0d1876" points="1189.25,-288 900.25,-288 900.25,-220 1189.25,-220 1189.25,-288"/>
<text text-anchor="middle" x="1044.75" y="-274.5" font-family="Arial" font-size="10.00" fill="#ffffff">raytracer</text>
<text text-anchor="middle" x="1044.75" y="-262.5" font-family="Arial" font-size="10.00" fill="#ffffff">Glass::interact(RayParams const&amp;, Intersection const&amp;) const</text>
<text text-anchor="middle" x="1044.75" y="-250.5" font-family="Arial" font-size="10.00" fill="#ffffff">2.69%</text>
<text text-anchor="middle" x="1044.75" y="-238.5" font-family="Arial" font-size="10.00" fill="#ffffff">(1.03%)</text>
<text text-anchor="middle" x="1044.75" y="-226.5" font-family="Arial" font-size="10.00" fill="#ffffff">1073391×</text>
</g>
<!-- pow@@GLIBC_2.29 -->
<g id="node5" class="node">
<title>pow@@GLIBC_2.29</title>
<polygon fill="#0d0f74" stroke="#0d0f74" points="1341.25,-178 1232.25,-178 1232.25,-110 1341.25,-110 1341.25,-178"/>
<text text-anchor="middle" x="1286.75" y="-164.5" font-family="Arial" font-size="10.00" fill="#ffffff">libm.so.6</text>
<text text-anchor="middle" x="1286.75" y="-152.5" font-family="Arial" font-size="10.00" fill="#ffffff">pow@@GLIBC_2.29</text>
<text text-anchor="middle" x="1286.75" y="-140.5" font-family="Arial" font-size="10.00" fill="#ffffff">0.67%</text>
<text text-anchor="middle" x="1286.75" y="-128.5" font-family="Arial" font-size="10.00" fill="#ffffff">(0.11%)</text>
<text text-anchor="middle" x="1286.75" y="-116.5" font-family="Arial" font-size="10.00" fill="#ffffff">978436×</text>
</g>
<!-- Glass::interact(RayParams const&amp;, Intersection const&amp;) const&#45;&gt;pow@@GLIBC_2.29 -->
<g id="edge3" class="edge">
<title>Glass::interact(RayParams const&amp;, Intersection const&amp;) const&#45;&gt;pow@@GLIBC_2.29</title>
<path fill="none" stroke="#0d0f74" stroke-width="0.5" d="M1119.66,-219.57C1154.76,-203.9 1195.94,-185.53 1228.64,-170.93"/>
<polygon fill="#0d0f74" stroke="#0d0f74" stroke-width="0.5" points="1229.08,-172.08 1231.78,-169.53 1228.08,-169.84 1229.08,-172.08"/>
<text text-anchor="middle" x="1205.5" y="-201.5" font-family="Arial" font-size="10.00" fill="#0d0f74">0.67%</text>
<text text-anchor="middle" x="1205.5" y="-189.5" font-family="Arial" font-size="10.00" fill="#0d0f74">978436×</text>
</g>
<!-- uniform() -->
<g id="node6" class="node">
<title>uniform()</title>
<polygon fill="#0c698b" stroke="#0c698b" points="1100.75,-178 1036.75,-178 1036.75,-110 1100.75,-110 1100.75,-178"/>
<text text-anchor="middle" x="1068.75" y="-164.5" font-family="Arial" font-size="10.00" fill="#ffffff">raytracer</text>
<text text-anchor="middle" x="1068.75" y="-152.5" font-family="Arial" font-size="10.00" fill="#ffffff">uniform()</text>
<text text-anchor="middle" x="1068.75" y="-140.5" font-family="Arial" font-size="10.00" fill="#ffffff">18.41%</text>
<text text-anchor="middle" x="1068.75" y="-128.5" font-family="Arial" font-size="10.00" fill="#ffffff">(10.38%)</text>
<text text-anchor="middle" x="1068.75" y="-116.5" font-family="Arial" font-size="10.00" fill="#ffffff">18978436×</text>
</g>
<!-- Glass::interact(RayParams const&amp;, Intersection const&amp;) const&#45;&gt;uniform() -->
<g id="edge4" class="edge">
<title>Glass::interact(RayParams const&amp;, Intersection const&amp;) const&#45;&gt;uniform()</title>
<path fill="none" stroke="#0d1174" stroke-width="0.5" d="M1052.15,-219.72C1054.84,-207.6 1057.89,-193.85 1060.64,-181.48"/>
<polygon fill="#0d1174" stroke="#0d1174" stroke-width="0.5" points="1061.77,-182.04 1061.34,-178.36 1059.38,-181.51 1061.77,-182.04"/>
<text text-anchor="middle" x="1077.5" y="-201.5" font-family="Arial" font-size="10.00" fill="#0d1174">0.95%</text>
<text text-anchor="middle" x="1077.5" y="-189.5" font-family="Arial" font-size="10.00" fill="#0d1174">978436×</text>
</g>
<!-- __ieee754_pow_fma -->
<g id="node14" class="node">
<title>__ieee754_pow_fma</title>
<polygon fill="#0d0f73" stroke="#0d0f73" points="1460.38,-68 1355.12,-68 1355.12,0 1460.38,0 1460.38,-68"/>
<text text-anchor="middle" x="1407.75" y="-54.5" font-family="Arial" font-size="10.00" fill="#ffffff">libm.so.6</text>
<text text-anchor="middle" x="1407.75" y="-42.5" font-family="Arial" font-size="10.00" fill="#ffffff">__ieee754_pow_fma</text>
<text text-anchor="middle" x="1407.75" y="-30.5" font-family="Arial" font-size="10.00" fill="#ffffff">0.56%</text>
<text text-anchor="middle" x="1407.75" y="-18.5" font-family="Arial" font-size="10.00" fill="#ffffff">(0.56%)</text>
<text text-anchor="middle" x="1407.75" y="-6.5" font-family="Arial" font-size="10.00" fill="#ffffff">978436×</text>
</g>
<!-- pow@@GLIBC_2.29&#45;&gt;__ieee754_pow_fma -->
<g id="edge18" class="edge">
<title>pow@@GLIBC_2.29&#45;&gt;__ieee754_pow_fma</title>
<path fill="none" stroke="#0d0f73" stroke-width="0.5" d="M1324.04,-109.72C1337.96,-97.29 1353.8,-83.15 1367.94,-70.53"/>
<polygon fill="#0d0f73" stroke="#0d0f73" stroke-width="0.5" points="1368.58,-71.61 1370.37,-68.36 1366.95,-69.78 1368.58,-71.61"/>
<text text-anchor="middle" x="1376.5" y="-91.5" font-family="Arial" font-size="10.00" fill="#0d0f73">0.56%</text>
<text text-anchor="middle" x="1376.5" y="-79.5" font-family="Arial" font-size="10.00" fill="#0d0f73">978436×</text>
</g>
<!-- std::mersenne_twister_engine&lt;unsigned long, 32ul, 624ul, 397ul, 31ul, 2567483615ul, 11ul, 4294967295ul, 7ul, 2636928640ul, 15ul, 4022730752ul, 18ul, 1812433253ul&gt;::_M_gen_rand() -->
<g id="node8" class="node">
<title>std::mersenne_twister_engine&lt;unsigned long, 32ul, 624ul, 397ul, 31ul, 2567483615ul, 11ul, 4294967295ul, 7ul, 2636928640ul, 15ul, 4022730752ul, 18ul, 1812433253ul&gt;::_M_gen_rand()</title>
<polygon fill="#0d267a" stroke="#0d267a" points="815.5,-68 0,-68 0,0 815.5,0 815.5,-68"/>
<text text-anchor="middle" x="407.75" y="-54.5" font-family="Arial" font-size="10.00" fill="#ffffff">raytracer</text>
<text text-anchor="middle" x="407.75" y="-42.5" font-family="Arial" font-size="10.00" fill="#ffffff">std::mersenne_twister_engine&lt;unsigned long, 32ul, 624ul, 397ul, 31ul, 2567483615ul, 11ul, 4294967295ul, 7ul, 2636928640ul, 15ul, 4022730752ul, 18ul, 1812433253ul&gt;::_M_gen_rand()</text>
<text text-anchor="middle" x="407.75" y="-30.5" font-family="Arial" font-size="10.00" fill="#ffffff">5.69%</text>
<text text-anchor="middle" x="407.75" y="-18.5" font-family="Arial" font-size="10.00" fill="#ffffff">(5.69%)</text>
<text text-anchor="middle" x="407.75" y="-6.5" font-family="Arial" font-size="10.00" fill="#ffffff">176737×</text>
</g>
<!-- uniform()&#45;&gt;std::mersenne_twister_engine&lt;unsigned long, 32ul, 624ul, 397ul, 31ul, 2567483615ul, 11ul, 4294967295ul, 7ul, 2636928640ul, 15ul, 4022730752ul, 18ul, 1812433253ul&gt;::_M_gen_rand() -->
<g id="edge19" class="edge">
<title>uniform()&#45;&gt;std::mersenne_twister_engine&lt;unsigned long, 32ul, 624ul, 397ul, 31ul, 2567483615ul, 11ul, 4294967295ul, 7ul, 2636928640ul, 15ul, 4022730752ul, 18ul, 1812433253ul&gt;::_M_gen_rand()</title>
<path fill="none" stroke="#0d1575" stroke-width="0.5" d="M1036.37,-136.61C1001.1,-129.72 943,-118.59 892.75,-110 809.6,-95.78 718.23,-81.34 637.43,-68.98"/>
<polygon fill="#0d1575" stroke="#0d1575" stroke-width="0.5" points="637.72,-67.79 634.08,-68.47 637.35,-70.21 637.72,-67.79"/>
<text text-anchor="middle" x="843.88" y="-91.5" font-family="Arial" font-size="10.00" fill="#0d1575">1.96%</text>
<text text-anchor="middle" x="843.88" y="-79.5" font-family="Arial" font-size="10.00" fill="#0d1575">60829×</text>
</g>
<!-- std::random_device::_M_init(std::__cxx11::basic_string&lt;char, std::char_traits&lt;char&gt;, std::allocator&lt;char&gt; &gt; const&amp;) -->
<g id="node15" class="node">
<title>std::random_device::_M_init(std::__cxx11::basic_string&lt;char, std::char_traits&lt;char&gt;, std::allocator&lt;char&gt; &gt; const&amp;)</title>
<polygon fill="#0d257a" stroke="#0d257a" points="1346.5,-68 825,-68 825,0 1346.5,0 1346.5,-68"/>
<text text-anchor="middle" x="1085.75" y="-54.5" font-family="Arial" font-size="10.00" fill="#ffffff">libstdc++.so.6.0.32</text>
<text text-anchor="middle" x="1085.75" y="-42.5" font-family="Arial" font-size="10.00" fill="#ffffff">std::random_device::_M_init(std::__cxx11::basic_string&lt;char, std::char_traits&lt;char&gt;, std::allocator&lt;char&gt; &gt; const&amp;)</text>
<text text-anchor="middle" x="1085.75" y="-30.5" font-family="Arial" font-size="10.00" fill="#ffffff">5.65%</text>
<text text-anchor="middle" x="1085.75" y="-18.5" font-family="Arial" font-size="10.00" fill="#ffffff">(5.65%)</text>
<text text-anchor="middle" x="1085.75" y="-6.5" font-family="Arial" font-size="10.00" fill="#ffffff">18978436×</text>
</g>
<!-- uniform()&#45;&gt;std::random_device::_M_init(std::__cxx11::basic_string&lt;char, std::char_traits&lt;char&gt;, std::allocator&lt;char&gt; &gt; const&amp;) -->
<g id="edge20" class="edge">
<title>uniform()&#45;&gt;std::random_device::_M_init(std::__cxx11::basic_string&lt;char, std::char_traits&lt;char&gt;, std::allocator&lt;char&gt; &gt; const&amp;)</title>
<path fill="none" stroke="#0d257a" stroke-width="0.5" d="M1073.99,-109.72C1075.88,-97.7 1078.02,-84.08 1079.96,-71.79"/>
<polygon fill="#0d257a" stroke="#0d257a" stroke-width="0.5" points="1081.16,-72.01 1080.5,-68.36 1078.74,-71.63 1081.16,-72.01"/>
<text text-anchor="middle" x="1102.75" y="-91.5" font-family="Arial" font-size="10.00" fill="#0d257a">5.65%</text>
<text text-anchor="middle" x="1102.75" y="-79.5" font-family="Arial" font-size="10.00" fill="#0d257a">18978436×</text>
</g>
<!-- LambertianDiffuse::interact(RayParams const&amp;, Intersection const&amp;) const -->
<g id="node7" class="node">
<title>LambertianDiffuse::interact(RayParams const&amp;, Intersection const&amp;) const</title>
<polygon fill="#0c758d" stroke="#0c758d" points="666.88,-288 324.62,-288 324.62,-220 666.88,-220 666.88,-288"/>
<text text-anchor="middle" x="495.75" y="-274.5" font-family="Arial" font-size="10.00" fill="#ffffff">raytracer</text>
<text text-anchor="middle" x="495.75" y="-262.5" font-family="Arial" font-size="10.00" fill="#ffffff">LambertianDiffuse::interact(RayParams const&amp;, Intersection const&amp;) const</text>
<text text-anchor="middle" x="495.75" y="-250.5" font-family="Arial" font-size="10.00" fill="#ffffff">20.34%</text>
<text text-anchor="middle" x="495.75" y="-238.5" font-family="Arial" font-size="10.00" fill="#ffffff">(16.67%)</text>
<text text-anchor="middle" x="495.75" y="-226.5" font-family="Arial" font-size="10.00" fill="#ffffff">6207256×</text>
</g>
<!-- LambertianDiffuse::interact(RayParams const&amp;, Intersection const&amp;) const&#45;&gt;std::mersenne_twister_engine&lt;unsigned long, 32ul, 624ul, 397ul, 31ul, 2567483615ul, 11ul, 4294967295ul, 7ul, 2636928640ul, 15ul, 4022730752ul, 18ul, 1812433253ul&gt;::_M_gen_rand() -->
<g id="edge5" class="edge">
<title>LambertianDiffuse::interact(RayParams const&amp;, Intersection const&amp;) const&#45;&gt;std::mersenne_twister_engine&lt;unsigned long, 32ul, 624ul, 397ul, 31ul, 2567483615ul, 11ul, 4294967295ul, 7ul, 2636928640ul, 15ul, 4022730752ul, 18ul, 1812433253ul&gt;::_M_gen_rand()</title>
<path fill="none" stroke="#0d1c77" stroke-width="0.5" d="M482.38,-219.89C466.23,-179.88 439.15,-112.78 422.43,-71.36"/>
<polygon fill="#0d1c77" stroke="#0d1c77" stroke-width="0.5" points="423.69,-71.21 421.24,-68.42 421.42,-72.13 423.69,-71.21"/>
<text text-anchor="middle" x="484.5" y="-146.5" font-family="Arial" font-size="10.00" fill="#0d1c77">3.67%</text>
<text text-anchor="middle" x="484.5" y="-134.5" font-family="Arial" font-size="10.00" fill="#0d1c77">113928×</text>
</g>
<!-- MovableCamera::get_ray(int, int, bool) const&#45;&gt;uniform() -->
<g id="edge6" class="edge">
<title>MovableCamera::get_ray(int, int, bool) const&#45;&gt;uniform()</title>
<path fill="none" stroke="#0c6489" stroke-width="0.7" d="M1195.49,-406.8C1214.65,-354.63 1242.07,-252.65 1194.75,-187 1174.74,-159.24 1135.58,-149.55 1106.2,-146.31"/>
<polygon fill="#0c6489" stroke="#0c6489" stroke-width="0.7" points="1106.53,-144.76 1102.21,-145.81 1106.24,-147.69 1106.53,-144.76"/>
<text text-anchor="middle" x="1243.75" y="-311.5" font-family="Arial" font-size="10.00" fill="#0c6489">17.46%</text>
<text text-anchor="middle" x="1243.75" y="-299.5" font-family="Arial" font-size="10.00" fill="#0c6489">18000000×</text>
</g>
<!-- Scene::closest_intersect(RayParams const&amp;) -->
<g id="node10" class="node">
<title>Scene::closest_intersect(RayParams const&amp;)</title>
<polygon fill="#0ab026" stroke="#0ab026" points="891.5,-288 676,-288 676,-220 891.5,-220 891.5,-288"/>
<text text-anchor="middle" x="783.75" y="-274.5" font-family="Arial" font-size="10.00" fill="#ffffff">raytracer</text>
<text text-anchor="middle" x="783.75" y="-262.5" font-family="Arial" font-size="10.00" fill="#ffffff">Scene::closest_intersect(RayParams const&amp;)</text>
<text text-anchor="middle" x="783.75" y="-250.5" font-family="Arial" font-size="10.00" fill="#ffffff">45.81%</text>
<text text-anchor="middle" x="783.75" y="-238.5" font-family="Arial" font-size="10.00" fill="#ffffff">(9.24%)</text>
<text text-anchor="middle" x="783.75" y="-226.5" font-family="Arial" font-size="10.00" fill="#ffffff">16386084×</text>
</g>
<!-- Sphere::intersect(RayParams const&amp;) const -->
<g id="node11" class="node">
<title>Sphere::intersect(RayParams const&amp;) const</title>
<polygon fill="#0ba35d" stroke="#0ba35d" points="888.12,-178 679.38,-178 679.38,-110 888.12,-110 888.12,-178"/>
<text text-anchor="middle" x="783.75" y="-164.5" font-family="Arial" font-size="10.00" fill="#ffffff">raytracer</text>
<text text-anchor="middle" x="783.75" y="-152.5" font-family="Arial" font-size="10.00" fill="#ffffff">Sphere::intersect(RayParams const&amp;) const</text>
<text text-anchor="middle" x="783.75" y="-140.5" font-family="Arial" font-size="10.00" fill="#ffffff">36.57%</text>
<text text-anchor="middle" x="783.75" y="-128.5" font-family="Arial" font-size="10.00" fill="#ffffff">(36.57%)</text>
<text text-anchor="middle" x="783.75" y="-116.5" font-family="Arial" font-size="10.00" fill="#ffffff">81930420×</text>
</g>
<!-- Scene::closest_intersect(RayParams const&amp;)&#45;&gt;Sphere::intersect(RayParams const&amp;) const -->
<g id="edge7" class="edge">
<title>Scene::closest_intersect(RayParams const&amp;)&#45;&gt;Sphere::intersect(RayParams const&amp;) const</title>
<path fill="none" stroke="#0ba35d" stroke-width="1.46" d="M783.75,-219.72C783.75,-209.14 783.75,-197.32 783.75,-186.26"/>
<polygon fill="#0ba35d" stroke="#0ba35d" stroke-width="1.46" points="785.85,-186.36 783.75,-180.36 781.65,-186.36 785.85,-186.36"/>
<text text-anchor="middle" x="807.75" y="-201.5" font-family="Arial" font-size="10.00" fill="#0ba35d">36.57%</text>
<text text-anchor="middle" x="807.75" y="-189.5" font-family="Arial" font-size="10.00" fill="#0ba35d">81930420×</text>
</g>
<!-- Scene::color_at(Ray const&amp;, int)&#45;&gt;Glass::interact(RayParams const&amp;, Intersection const&amp;) const -->
<g id="edge8" class="edge">
<title>Scene::color_at(Ray const&amp;, int)&#45;&gt;Glass::interact(RayParams const&amp;, Intersection const&amp;) const</title>
<path fill="none" stroke="#0d0e73" stroke-width="0.5" d="M944.33,-483.64C975.69,-463.24 1011.23,-434.11 1030.75,-398 1048.49,-365.18 1050.28,-321.91 1048.7,-291.59"/>
<polygon fill="#0d0e73" stroke="#0d0e73" stroke-width="0.5" points="1049.94,-291.75 1048.52,-288.33 1047.49,-291.89 1049.94,-291.75"/>
<text text-anchor="middle" x="1066.5" y="-366.5" font-family="Arial" font-size="10.00" fill="#0d0e73">0.34%</text>
<text text-anchor="middle" x="1066.5" y="-354.5" font-family="Arial" font-size="10.00" fill="#0d0e73">127985×</text>
</g>
<!-- Scene::color_at(Ray const&amp;, int)&#45;&gt;LambertianDiffuse::interact(RayParams const&amp;, Intersection const&amp;) const -->
<g id="edge9" class="edge">
<title>Scene::color_at(Ray const&amp;, int)&#45;&gt;LambertianDiffuse::interact(RayParams const&amp;, Intersection const&amp;) const</title>
<path fill="none" stroke="#0c6e8c" stroke-width="0.77" d="M803.21,-496.21C786.68,-490.44 769.75,-483.4 754.75,-475 664.7,-424.56 576.78,-340.32 530.12,-292.03"/>
<polygon fill="#0c6e8c" stroke="#0c6e8c" stroke-width="0.77" points="530.72,-290.43 526.56,-288.33 528.5,-292.57 530.72,-290.43"/>
<text text-anchor="middle" x="662.12" y="-366.5" font-family="Arial" font-size="10.00" fill="#0c6e8c">19.17%</text>
<text text-anchor="middle" x="662.12" y="-354.5" font-family="Arial" font-size="10.00" fill="#0c6e8c">5850719×</text>
</g>
<!-- Scene::color_at(Ray const&amp;, int)&#45;&gt;Scene::closest_intersect(RayParams const&amp;) -->
<g id="edge10" class="edge">
<title>Scene::color_at(Ray const&amp;, int)&#45;&gt;Scene::closest_intersect(RayParams const&amp;)</title>
<path fill="none" stroke="#0c9491" stroke-width="1.02" d="M828.28,-483.72C799.81,-462.99 767.7,-433.51 752,-398 733.83,-356.9 741.04,-339.1 756.75,-297 757.19,-295.81 757.67,-294.62 758.19,-293.44"/>
<polygon fill="#0c9491" stroke="#0c9491" stroke-width="1.02" points="760.07,-294.53 760.62,-289.26 756.91,-293.04 760.07,-294.53"/>
<text text-anchor="middle" x="774.12" y="-366.5" font-family="Arial" font-size="10.00" fill="#0c9491">25.49%</text>
<text text-anchor="middle" x="774.12" y="-354.5" font-family="Arial" font-size="10.00" fill="#0c9491">9000000×</text>
</g>
<!-- Scene::color_at(Ray const&amp;, int)&#39;2 -->
<g id="node13" class="node">
<title>Scene::color_at(Ray const&amp;, int)&#39;2</title>
<polygon fill="#0c958d" stroke="#0c958d" points="965.75,-398 799.75,-398 799.75,-330 965.75,-330 965.75,-398"/>
<text text-anchor="middle" x="882.75" y="-384.5" font-family="Arial" font-size="10.00" fill="#ffffff">raytracer</text>
<text text-anchor="middle" x="882.75" y="-372.5" font-family="Arial" font-size="10.00" fill="#ffffff">Scene::color_at(Ray const&amp;, int)&#39;2</text>
<text text-anchor="middle" x="882.75" y="-360.5" font-family="Arial" font-size="10.00" fill="#ffffff">26.48%</text>
<text text-anchor="middle" x="882.75" y="-348.5" font-family="Arial" font-size="10.00" fill="#ffffff">(2.47%)</text>
<text text-anchor="middle" x="882.75" y="-336.5" font-family="Arial" font-size="10.00" fill="#ffffff">7386198×</text>
</g>
<!-- Scene::color_at(Ray const&amp;, int)&#45;&gt;Scene::color_at(Ray const&amp;, int)&#39;2 -->
<g id="edge11" class="edge">
<title>Scene::color_at(Ray const&amp;, int)&#45;&gt;Scene::color_at(Ray const&amp;, int)&#39;2</title>
<path fill="none" stroke="#0c958d" stroke-width="1.06" d="M882.75,-483.64C882.75,-460.28 882.75,-428.97 882.75,-404.38"/>
<polygon fill="#0c958d" stroke="#0c958d" stroke-width="1.06" points="884.54,-404.38 882.75,-399.28 880.97,-404.38 884.54,-404.38"/>
<text text-anchor="middle" x="904.12" y="-443.5" font-family="Arial" font-size="10.00" fill="#0c958d">26.48%</text>
<text text-anchor="middle" x="904.12" y="-431.5" font-family="Arial" font-size="10.00" fill="#0c958d">6031354×</text>
</g>
<!-- Scene::color_at(Ray const&amp;, int)&#39;2&#45;&gt;Glass::interact(RayParams const&amp;, Intersection const&amp;) const -->
<g id="edge12" class="edge">
<title>Scene::color_at(Ray const&amp;, int)&#39;2&#45;&gt;Glass::interact(RayParams const&amp;, Intersection const&amp;) const</title>
<path fill="none" stroke="#0d1776" stroke-width="0.5" d="M932.68,-329.72C951.46,-317.19 972.88,-302.92 991.92,-290.22"/>
<polygon fill="#0d1776" stroke="#0d1776" stroke-width="0.5" points="992.48,-291.32 994.71,-288.36 991.12,-289.28 992.48,-291.32"/>
<text text-anchor="middle" x="997.5" y="-311.5" font-family="Arial" font-size="10.00" fill="#0d1776">2.34%</text>
<text text-anchor="middle" x="997.5" y="-299.5" font-family="Arial" font-size="10.00" fill="#0d1776">945406×</text>
</g>
<!-- Scene::color_at(Ray const&amp;, int)&#39;2&#45;&gt;LambertianDiffuse::interact(RayParams const&amp;, Intersection const&amp;) const -->
<g id="edge13" class="edge">
<title>Scene::color_at(Ray const&amp;, int)&#39;2&#45;&gt;LambertianDiffuse::interact(RayParams const&amp;, Intersection const&amp;) const</title>
<path fill="none" stroke="#0d1274" stroke-width="0.5" d="M799.5,-332.13C797.23,-331.4 794.98,-330.69 792.75,-330 744.77,-315.19 691.77,-301.1 643.99,-289.22"/>
<polygon fill="#0d1274" stroke="#0d1274" stroke-width="0.5" points="644.55,-288.09 640.85,-288.44 643.96,-290.47 644.55,-288.09"/>
<text text-anchor="middle" x="780.5" y="-311.5" font-family="Arial" font-size="10.00" fill="#0d1274">1.17%</text>
<text text-anchor="middle" x="780.5" y="-299.5" font-family="Arial" font-size="10.00" fill="#0d1274">356537×</text>
</g>
<!-- Scene::color_at(Ray const&amp;, int)&#39;2&#45;&gt;Scene::closest_intersect(RayParams const&amp;) -->
<g id="edge14" class="edge">
<title>Scene::color_at(Ray const&amp;, int)&#39;2&#45;&gt;Scene::closest_intersect(RayParams const&amp;)</title>
<path fill="none" stroke="#0c758d" stroke-width="0.81" d="M852.24,-329.72C841.32,-317.81 828.96,-304.32 817.76,-292.11"/>
<polygon fill="#0c758d" stroke="#0c758d" stroke-width="0.81" points="818.53,-290.61 814.33,-288.36 816.21,-292.74 818.53,-290.61"/>
<text text-anchor="middle" x="864.12" y="-311.5" font-family="Arial" font-size="10.00" fill="#0c758d">20.32%</text>
<text text-anchor="middle" x="864.12" y="-299.5" font-family="Arial" font-size="10.00" fill="#0c758d">7386084×</text>
</g>
<!-- Scene::color_at(Ray const&amp;, int)&#39;2&#45;&gt;Scene::color_at(Ray const&amp;, int)&#39;2 -->
<g id="edge15" class="edge">
<title>Scene::color_at(Ray const&amp;, int)&#39;2&#45;&gt;Scene::color_at(Ray const&amp;, int)&#39;2</title>
<path fill="none" stroke="#0c958d" stroke-width="1.06" d="M966.1,-371.32C971.49,-369.61 974.75,-367.17 974.75,-364 974.75,-362.12 973.6,-360.49 971.54,-359.13"/>
<polygon fill="#0c958d" stroke="#0c958d" stroke-width="1.06" points="972.49,-357.15 967.1,-356.68 971.02,-360.4 972.49,-357.15"/>
<text text-anchor="middle" x="996.12" y="-360.5" font-family="Arial" font-size="10.00" fill="#0c958d">1354844×</text>
</g>
</g>
</svg>
